<?xml version="1.0" encoding="UTF-8" standalone="no"?>
<svg
   xmlns:freecad="http://www.freecadweb.org/wiki/index.php?title=Svg_Namespace"
   xmlns:dc="http://purl.org/dc/elements/1.1/"
   xmlns:cc="http://creativecommons.org/ns#"
   xmlns:rdf="http://www.w3.org/1999/02/22-rdf-syntax-ns#"
   xmlns:svg="http://www.w3.org/2000/svg"
   xmlns="http://www.w3.org/2000/svg"
   xmlns:sodipodi="http://sodipodi.sourceforge.net/DTD/sodipodi-0.dtd"
   xmlns:inkscape="http://www.inkscape.org/namespaces/inkscape"
   width="179.99998mm"
   height="28.19503mm"
   viewBox="0 0 179.99998 28.19503"
   version="1.1"
   id="svg11175"
   inkscape:version="1.0.2 (1.0.2+r75+1)"
   sodipodi:docname="aenderung_table.svg">
  <defs
     id="defs11169" />
  <sodipodi:namedview
     id="base"
     pagecolor="#ffffff"
     bordercolor="#666666"
     borderopacity="1.0"
     inkscape:pageopacity="0.0"
     inkscape:pageshadow="2"
     inkscape:zoom="0.49497475"
     inkscape:cx="368.67383"
     inkscape:cy="53.567547"
     inkscape:document-units="mm"
     inkscape:current-layer="layer1"
     inkscape:document-rotation="0"
     showgrid="false"
     fit-margin-top="0"
     fit-margin-left="0"
     fit-margin-right="0"
     fit-margin-bottom="0"
     inkscape:window-width="1278"
     inkscape:window-height="1416"
     inkscape:window-x="3200"
     inkscape:window-y="22"
     inkscape:window-maximized="1" />
  <metadata
     id="metadata11172">
    <rdf:RDF>
      <cc:Work
         rdf:about="">
        <dc:format>image/svg+xml</dc:format>
        <dc:type
           rdf:resource="http://purl.org/dc/dcmitype/StillImage" />
        <dc:title></dc:title>
      </cc:Work>
    </rdf:RDF>
  </metadata>
  <g
     inkscape:label="Layer 1"
     inkscape:groupmode="layer"
     id="layer1"
     transform="translate(-15.833345,-134.06916)">
    <rect
       style="fill:none;stroke:#000000;stroke-width:0.349999;stroke-miterlimit:4;stroke-dasharray:none"
       id="rect3304"
       width="179.64998"
       height="27.845032"
       x="16.008345"
       y="134.24416" />
    <g
       aria-label="Zust."
       id="text4761-8-3-4-5-1-9-2"
       style="font-style:normal;font-weight:normal;font-size:2.11667px;line-height:1.25;font-family:sans-serif;letter-spacing:0px;word-spacing:0px;fill:#000000;fill-opacity:1;stroke:none;stroke-width:0.0343959;stroke-linecap:butt;stroke-linejoin:miter"
       transform="translate(-91.480433,19.247828)">
      <path
         d="m 108.66984,139.53931 h 1.21233 v 0.15916 l -0.97565,1.2082 h 0.99943 v 0.1757 h -1.25988 v -0.15917 l 0.97565,-1.20819 h -0.95188 z"
         style="font-size:2.11667px;stroke-width:0.0343959"
         id="path9564" />
      <path
         d="m 110.18086,140.62555 v -0.70074 h 0.19017 v 0.6935 q 0,0.16433 0.0641,0.24702 0.0641,0.0816 0.19224,0.0816 0.154,0 0.24288,-0.0982 0.0899,-0.0982 0.0899,-0.26769 v -0.65629 h 0.19017 v 1.15756 h -0.19017 v -0.17777 q -0.0692,0.10542 -0.16123,0.1571 -0.091,0.0506 -0.21188,0.0506 -0.19947,0 -0.30282,-0.12402 -0.10336,-0.12403 -0.10336,-0.36277 z m 0.47853,-0.72864 z"
         style="font-size:2.11667px;stroke-width:0.0343959"
         id="path9566" />
      <path
         d="m 112.27996,139.95892 v 0.17983 q -0.0806,-0.0413 -0.16743,-0.062 -0.0868,-0.0207 -0.17983,-0.0207 -0.1416,0 -0.21291,0.0434 -0.0703,0.0434 -0.0703,0.13022 0,0.0661 0.0506,0.10439 0.0507,0.0372 0.20361,0.0713 l 0.0651,0.0145 q 0.20257,0.0434 0.28732,0.12299 0.0858,0.0786 0.0858,0.22015 0,0.16123 -0.12816,0.25528 -0.12713,0.094 -0.35037,0.094 -0.093,0 -0.1943,-0.0186 -0.10025,-0.0176 -0.21188,-0.0538 v -0.19637 q 0.10542,0.0548 0.20774,0.0827 0.10232,0.0269 0.20258,0.0269 0.13435,0 0.2067,-0.0455 0.0724,-0.0465 0.0724,-0.13022 0,-0.0775 -0.0527,-0.11886 -0.0517,-0.0413 -0.22841,-0.0796 l -0.0662,-0.0155 q -0.17673,-0.0372 -0.25528,-0.11368 -0.0785,-0.0775 -0.0785,-0.21188 0,-0.1633 0.11576,-0.25218 0.11575,-0.0889 0.32866,-0.0889 0.10542,0 0.19844,0.0155 0.093,0.0155 0.17156,0.0465 z"
         style="font-size:2.11667px;stroke-width:0.0343959"
         id="path9568" />
      <path
         d="m 112.8329,139.59615 v 0.32866 h 0.39171 v 0.1478 h -0.39171 v 0.62838 q 0,0.1416 0.0382,0.18191 0.0393,0.0403 0.15813,0.0403 h 0.19534 v 0.15917 h -0.19534 q -0.22014,0 -0.30385,-0.0816 -0.0837,-0.0827 -0.0837,-0.29973 v -0.62838 h -0.13953 v -0.1478 h 0.13953 v -0.32866 z"
         style="font-size:2.11667px;stroke-width:0.0343959"
         id="path9570" />
      <path
         d="m 113.5016,140.81985 h 0.21807 v 0.26252 h -0.21807 z"
         style="font-size:2.11667px;stroke-width:0.0343959"
         id="path9572" />
    </g>
    <g
       aria-label="Beschreibung der Änderung"
       id="text4761-8-3-4-5-1-9-2-5"
       style="font-style:normal;font-weight:normal;font-size:2.11667px;line-height:1.25;font-family:sans-serif;letter-spacing:0px;word-spacing:0px;fill:#000000;fill-opacity:1;stroke:none;stroke-width:0.0343959;stroke-linecap:butt;stroke-linejoin:miter"
       transform="translate(-91.480433,19.247828)">
      <path
         d="m 120.27696,140.33511 v 0.56535 h 0.33486 q 0.16847,0 0.24908,-0.0693 0.0816,-0.0703 0.0816,-0.21394 0,-0.1447 -0.0816,-0.21291 -0.0806,-0.0693 -0.24908,-0.0693 z m 0,-0.63458 v 0.46509 h 0.30902 q 0.15296,0 0.22738,-0.0568 0.0755,-0.0579 0.0755,-0.1757 0,-0.11679 -0.0755,-0.17467 -0.0744,-0.0579 -0.22738,-0.0579 z m -0.20878,-0.17157 h 0.5333 q 0.23875,0 0.36794,0.0992 0.12919,0.0992 0.12919,0.28215 0,0.1416 -0.0661,0.22531 -0.0662,0.0837 -0.19431,0.10439 0.154,0.0331 0.23875,0.13849 0.0858,0.10439 0.0858,0.26149 0,0.2067 -0.14056,0.31936 -0.14056,0.11265 -0.39998,0.11265 h -0.55397 z"
         style="font-size:2.11667px;stroke-width:0.0343959"
         id="path9575" />
      <path
         d="m 122.50215,140.4457 v 0.093 h -0.87437 q 0.0124,0.19637 0.11782,0.29972 0.10646,0.10232 0.29559,0.10232 0.10956,0 0.21188,-0.0269 0.10335,-0.0269 0.20463,-0.0806 v 0.17983 q -0.10231,0.0434 -0.2098,0.0661 -0.10749,0.0227 -0.21808,0.0227 -0.27698,0 -0.43925,-0.16123 -0.16123,-0.16123 -0.16123,-0.43615 0,-0.28422 0.15296,-0.45062 0.154,-0.16743 0.41445,-0.16743 0.23358,0 0.36897,0.1509 0.13643,0.14986 0.13643,0.40824 z m -0.19017,-0.0558 q -0.002,-0.15606 -0.0879,-0.24908 -0.0847,-0.093 -0.22531,-0.093 -0.15917,0 -0.25528,0.0899 -0.0951,0.0899 -0.10956,0.25322 z"
         style="font-size:2.11667px;stroke-width:0.0343959"
         id="path9577" />
      <path
         d="m 123.55221,139.94857 v 0.17984 q -0.0806,-0.0413 -0.16743,-0.062 -0.0868,-0.0207 -0.17983,-0.0207 -0.1416,0 -0.21291,0.0434 -0.0703,0.0434 -0.0703,0.13023 0,0.0661 0.0506,0.10439 0.0507,0.0372 0.20361,0.0713 l 0.0651,0.0145 q 0.20257,0.0434 0.28732,0.12299 0.0858,0.0786 0.0858,0.22014 0,0.16123 -0.12815,0.25528 -0.12713,0.0941 -0.35037,0.0941 -0.093,0 -0.1943,-0.0186 -0.10026,-0.0176 -0.21188,-0.0537 v -0.19637 q 0.10542,0.0548 0.20774,0.0827 0.10232,0.0269 0.20257,0.0269 0.13436,0 0.20671,-0.0455 0.0724,-0.0465 0.0724,-0.13022 0,-0.0775 -0.0527,-0.11886 -0.0517,-0.0413 -0.22841,-0.0796 l -0.0662,-0.0155 q -0.17673,-0.0372 -0.25528,-0.11369 -0.0785,-0.0775 -0.0785,-0.21187 0,-0.1633 0.11576,-0.25218 0.11575,-0.0889 0.32866,-0.0889 0.10542,0 0.19844,0.0155 0.093,0.0155 0.17156,0.0465 z"
         style="font-size:2.11667px;stroke-width:0.0343959"
         id="path9579" />
      <path
         d="m 124.75007,139.95891 v 0.17777 q -0.0806,-0.0445 -0.16226,-0.0662 -0.0806,-0.0227 -0.1633,-0.0227 -0.185,0 -0.28732,0.11783 -0.10232,0.11678 -0.10232,0.32866 0,0.21187 0.10232,0.32969 0.10232,0.11679 0.28732,0.11679 0.0827,0 0.1633,-0.0217 0.0816,-0.0227 0.16226,-0.0672 v 0.1757 q -0.0796,0.0372 -0.16536,0.0558 -0.0847,0.0186 -0.18087,0.0186 -0.26148,0 -0.41548,-0.16433 -0.15399,-0.16433 -0.15399,-0.44338 0,-0.28319 0.15503,-0.44545 0.15606,-0.16227 0.42684,-0.16227 0.0879,0 0.17157,0.0186 0.0837,0.0176 0.16226,0.0537 z"
         style="font-size:2.11667px;stroke-width:0.0343959"
         id="path9581" />
      <path
         d="m 126.04302,140.37336 v 0.69866 h -0.19017 v -0.69246 q 0,-0.16434 -0.0641,-0.24598 -0.0641,-0.0816 -0.19223,-0.0816 -0.154,0 -0.24288,0.0982 -0.0889,0.0982 -0.0889,0.26769 v 0.65422 h -0.1912 v -1.60817 h 0.1912 v 0.63045 q 0.0682,-0.10438 0.1602,-0.15606 0.093,-0.0517 0.21394,-0.0517 0.19947,0 0.30179,0.12403 0.10232,0.12299 0.10232,0.36277 z"
         style="font-size:2.11667px;stroke-width:0.0343959"
         id="path9583" />
      <path
         d="m 127.09309,140.09223 q -0.032,-0.0186 -0.0703,-0.0269 -0.0372,-0.009 -0.0827,-0.009 -0.16124,0 -0.24805,0.10542 -0.0858,0.10439 -0.0858,0.30076 v 0.60978 h -0.1912 v -1.15755 h 0.1912 v 0.17983 q 0.06,-0.10542 0.15607,-0.15606 0.0961,-0.0517 0.23358,-0.0517 0.0196,0 0.0434,0.003 0.0238,0.002 0.0527,0.007 z"
         style="font-size:2.11667px;stroke-width:0.0343959"
         id="path9585" />
      <path
         d="m 128.23617,140.4457 v 0.093 h -0.87436 q 0.0124,0.19637 0.11782,0.29972 0.10645,0.10232 0.29559,0.10232 0.10955,0 0.21187,-0.0269 0.10335,-0.0269 0.20464,-0.0806 v 0.17983 q -0.10232,0.0434 -0.20981,0.0661 -0.10748,0.0227 -0.21807,0.0227 -0.27699,0 -0.43925,-0.16123 -0.16123,-0.16123 -0.16123,-0.43615 0,-0.28422 0.15296,-0.45062 0.154,-0.16743 0.41445,-0.16743 0.23357,0 0.36897,0.1509 0.13642,0.14986 0.13642,0.40824 z m -0.19017,-0.0558 q -0.002,-0.15606 -0.0878,-0.24908 -0.0847,-0.093 -0.22531,-0.093 -0.15916,0 -0.25528,0.0899 -0.0951,0.0899 -0.10955,0.25322 z"
         style="font-size:2.11667px;stroke-width:0.0343959"
         id="path9587" />
      <path
         d="m 128.5483,139.91447 h 0.19017 v 1.15755 h -0.19017 z m 0,-0.45062 h 0.19017 v 0.24081 h -0.19017 z"
         style="font-size:2.11667px;stroke-width:0.0343959"
         id="path9589" />
      <path
         d="m 129.96734,140.49428 q 0,-0.20981 -0.0868,-0.32866 -0.0858,-0.11989 -0.23668,-0.11989 -0.15089,0 -0.23771,0.11989 -0.0858,0.11885 -0.0858,0.32866 0,0.2098 0.0858,0.32969 0.0868,0.11886 0.23771,0.11886 0.1509,0 0.23668,-0.11886 0.0868,-0.11989 0.0868,-0.32969 z m -0.64699,-0.40411 q 0.0599,-0.10336 0.15089,-0.15296 0.092,-0.0506 0.21911,-0.0506 0.21084,0 0.3421,0.16743 0.13229,0.16744 0.13229,0.44029 0,0.27285 -0.13229,0.44028 -0.13126,0.16743 -0.3421,0.16743 -0.12712,0 -0.21911,-0.0496 -0.0909,-0.0506 -0.15089,-0.15399 v 0.17363 h -0.19121 v -1.60817 h 0.19121 z"
         style="font-size:2.11667px;stroke-width:0.0343959"
         id="path9591" />
      <path
         d="m 130.46033,140.6152 v -0.70073 h 0.19017 v 0.6935 q 0,0.16433 0.0641,0.24701 0.0641,0.0816 0.19223,0.0816 0.154,0 0.24288,-0.0982 0.0899,-0.0982 0.0899,-0.26768 v -0.65629 h 0.19017 v 1.15755 h -0.19017 v -0.17777 q -0.0693,0.10542 -0.16123,0.1571 -0.091,0.0506 -0.21187,0.0506 -0.19948,0 -0.30283,-0.12402 -0.10335,-0.12402 -0.10335,-0.36277 z m 0.47852,-0.72864 z"
         style="font-size:2.11667px;stroke-width:0.0343959"
         id="path9593" />
      <path
         d="m 132.7837,140.37336 v 0.69866 h -0.19016 v -0.69246 q 0,-0.16434 -0.0641,-0.24598 -0.0641,-0.0816 -0.19224,-0.0816 -0.154,0 -0.24288,0.0982 -0.0889,0.0982 -0.0889,0.26769 v 0.65422 h -0.19121 v -1.15755 h 0.19121 v 0.17983 q 0.0682,-0.10438 0.16019,-0.15606 0.093,-0.0517 0.21394,-0.0517 0.19948,0 0.3018,0.12403 0.10231,0.12299 0.10231,0.36277 z"
         style="font-size:2.11667px;stroke-width:0.0343959"
         id="path9595" />
      <path
         d="m 133.92472,140.47981 q 0,-0.20671 -0.0858,-0.3204 -0.0848,-0.11368 -0.23875,-0.11368 -0.15296,0 -0.23874,0.11368 -0.0847,0.11369 -0.0847,0.3204 0,0.20567 0.0847,0.31936 0.0858,0.11369 0.23874,0.11369 0.154,0 0.23875,-0.11369 0.0858,-0.11369 0.0858,-0.31936 z m 0.19017,0.44855 q 0,0.29559 -0.13126,0.43925 -0.13125,0.1447 -0.40204,0.1447 -0.10025,0 -0.18914,-0.0155 -0.0889,-0.0145 -0.1726,-0.0455 v -0.185 q 0.0837,0.0455 0.16537,0.0672 0.0816,0.0217 0.1664,0.0217 0.18707,0 0.28008,-0.0982 0.093,-0.0971 0.093,-0.29455 v -0.0941 q -0.0589,0.10232 -0.15089,0.15296 -0.092,0.0506 -0.22015,0.0506 -0.2129,0 -0.34313,-0.16226 -0.13022,-0.16227 -0.13022,-0.42995 0,-0.26872 0.13022,-0.43098 0.13023,-0.16227 0.34313,-0.16227 0.12816,0 0.22015,0.0506 0.092,0.0506 0.15089,0.15296 v -0.1757 h 0.19017 z"
         style="font-size:2.11667px;stroke-width:0.0343959"
         id="path9597" />
      <path
         d="m 135.94114,140.09017 v -0.62632 h 0.19017 v 1.60817 h -0.19017 v -0.17363 q -0.0599,0.10335 -0.15193,0.15399 -0.0909,0.0496 -0.21911,0.0496 -0.2098,0 -0.3421,-0.16743 -0.13125,-0.16743 -0.13125,-0.44028 0,-0.27285 0.13125,-0.44029 0.1323,-0.16743 0.3421,-0.16743 0.12816,0 0.21911,0.0506 0.092,0.0496 0.15193,0.15296 z m -0.64802,0.40411 q 0,0.2098 0.0858,0.32969 0.0868,0.11886 0.23771,0.11886 0.1509,0 0.23771,-0.11886 0.0868,-0.11989 0.0868,-0.32969 0,-0.20981 -0.0868,-0.32866 -0.0868,-0.11989 -0.23771,-0.11989 -0.15089,0 -0.23771,0.11989 -0.0858,0.11885 -0.0858,0.32866 z"
         style="font-size:2.11667px;stroke-width:0.0343959"
         id="path9599" />
      <path
         d="m 137.51314,140.4457 v 0.093 h -0.87437 q 0.0124,0.19637 0.11782,0.29972 0.10646,0.10232 0.29559,0.10232 0.10956,0 0.21188,-0.0269 0.10335,-0.0269 0.20464,-0.0806 v 0.17983 q -0.10232,0.0434 -0.20981,0.0661 -0.10749,0.0227 -0.21807,0.0227 -0.27699,0 -0.43925,-0.16123 -0.16124,-0.16123 -0.16124,-0.43615 0,-0.28422 0.15297,-0.45062 0.15399,-0.16743 0.41444,-0.16743 0.23358,0 0.36897,0.1509 0.13643,0.14986 0.13643,0.40824 z m -0.19017,-0.0558 q -0.002,-0.15606 -0.0879,-0.24908 -0.0847,-0.093 -0.22531,-0.093 -0.15916,0 -0.25528,0.0899 -0.0951,0.0899 -0.10956,0.25322 z"
         style="font-size:2.11667px;stroke-width:0.0343959"
         id="path9601" />
      <path
         d="m 138.49603,140.09223 q -0.032,-0.0186 -0.0703,-0.0269 -0.0372,-0.009 -0.0827,-0.009 -0.16123,0 -0.24804,0.10542 -0.0858,0.10439 -0.0858,0.30076 v 0.60978 h -0.1912 v -1.15755 h 0.1912 v 0.17983 q 0.0599,-0.10542 0.15607,-0.15606 0.0961,-0.0517 0.23357,-0.0517 0.0196,0 0.0434,0.003 0.0238,0.002 0.0527,0.007 z"
         style="font-size:2.11667px;stroke-width:0.0343959"
         id="path9603" />
      <path
         d="m 139.89233,139.73463 -0.28319,0.76792 h 0.56741 z m -0.11783,-0.20567 h 0.23668 l 0.58808,1.54306 h -0.21704 l -0.14056,-0.39584 h -0.69557 l -0.14056,0.39584 h -0.22014 z m 0.21498,-0.38964 h 0.20981 v 0.20981 h -0.20981 z m -0.40411,0 h 0.2098 v 0.20981 h -0.2098 z"
         style="font-size:2.11667px;stroke-width:0.0343959"
         id="path9605" />
      <path
         d="m 141.77852,140.37336 v 0.69866 h -0.19017 v -0.69246 q 0,-0.16434 -0.0641,-0.24598 -0.0641,-0.0816 -0.19224,-0.0816 -0.15399,0 -0.24288,0.0982 -0.0889,0.0982 -0.0889,0.26769 v 0.65422 h -0.1912 v -1.15755 h 0.1912 v 0.17983 q 0.0682,-0.10438 0.1602,-0.15606 0.093,-0.0517 0.21394,-0.0517 0.19947,0 0.30179,0.12403 0.10232,0.12299 0.10232,0.36277 z"
         style="font-size:2.11667px;stroke-width:0.0343959"
         id="path9607" />
      <path
         d="m 142.91954,140.09017 v -0.62632 h 0.19017 v 1.60817 h -0.19017 v -0.17363 q -0.06,0.10335 -0.15193,0.15399 -0.0909,0.0496 -0.21911,0.0496 -0.20981,0 -0.3421,-0.16743 -0.13126,-0.16743 -0.13126,-0.44028 0,-0.27285 0.13126,-0.44029 0.13229,-0.16743 0.3421,-0.16743 0.12816,0 0.21911,0.0506 0.092,0.0496 0.15193,0.15296 z m -0.64803,0.40411 q 0,0.2098 0.0858,0.32969 0.0868,0.11886 0.23771,0.11886 0.15089,0 0.23771,-0.11886 0.0868,-0.11989 0.0868,-0.32969 0,-0.20981 -0.0868,-0.32866 -0.0868,-0.11989 -0.23771,-0.11989 -0.1509,0 -0.23771,0.11989 -0.0858,0.11885 -0.0858,0.32866 z"
         style="font-size:2.11667px;stroke-width:0.0343959"
         id="path9609" />
      <path
         d="m 144.49154,140.4457 v 0.093 h -0.87437 q 0.0124,0.19637 0.11782,0.29972 0.10646,0.10232 0.29559,0.10232 0.10956,0 0.21188,-0.0269 0.10335,-0.0269 0.20463,-0.0806 v 0.17983 q -0.10232,0.0434 -0.2098,0.0661 -0.10749,0.0227 -0.21808,0.0227 -0.27698,0 -0.43925,-0.16123 -0.16123,-0.16123 -0.16123,-0.43615 0,-0.28422 0.15296,-0.45062 0.154,-0.16743 0.41445,-0.16743 0.23358,0 0.36897,0.1509 0.13643,0.14986 0.13643,0.40824 z m -0.19017,-0.0558 q -0.002,-0.15606 -0.0879,-0.24908 -0.0847,-0.093 -0.22531,-0.093 -0.15917,0 -0.25529,0.0899 -0.0951,0.0899 -0.10955,0.25322 z"
         style="font-size:2.11667px;stroke-width:0.0343959"
         id="path9611" />
      <path
         d="m 145.47442,140.09223 q -0.032,-0.0186 -0.0703,-0.0269 -0.0372,-0.009 -0.0827,-0.009 -0.16123,0 -0.24805,0.10542 -0.0858,0.10439 -0.0858,0.30076 v 0.60978 h -0.1912 v -1.15755 h 0.1912 v 0.17983 q 0.06,-0.10542 0.15606,-0.15606 0.0961,-0.0517 0.23358,-0.0517 0.0196,0 0.0434,0.003 0.0238,0.002 0.0527,0.007 z"
         style="font-size:2.11667px;stroke-width:0.0343959"
         id="path9613" />
      <path
         d="m 145.65426,140.6152 v -0.70073 h 0.19017 v 0.6935 q 0,0.16433 0.0641,0.24701 0.0641,0.0816 0.19223,0.0816 0.154,0 0.24288,-0.0982 0.0899,-0.0982 0.0899,-0.26768 v -0.65629 h 0.19017 v 1.15755 h -0.19017 v -0.17777 q -0.0692,0.10542 -0.16123,0.1571 -0.0909,0.0506 -0.21188,0.0506 -0.19947,0 -0.30282,-0.12402 -0.10335,-0.12402 -0.10335,-0.36277 z m 0.47852,-0.72864 z"
         style="font-size:2.11667px;stroke-width:0.0343959"
         id="path9615" />
      <path
         d="m 147.97763,140.37336 v 0.69866 h -0.19017 v -0.69246 q 0,-0.16434 -0.0641,-0.24598 -0.0641,-0.0816 -0.19223,-0.0816 -0.154,0 -0.24288,0.0982 -0.0889,0.0982 -0.0889,0.26769 v 0.65422 h -0.1912 v -1.15755 h 0.1912 v 0.17983 q 0.0682,-0.10438 0.1602,-0.15606 0.093,-0.0517 0.21394,-0.0517 0.19947,0 0.30179,0.12403 0.10232,0.12299 0.10232,0.36277 z"
         style="font-size:2.11667px;stroke-width:0.0343959"
         id="path9617" />
      <path
         d="m 149.11865,140.47981 q 0,-0.20671 -0.0858,-0.3204 -0.0848,-0.11368 -0.23875,-0.11368 -0.15296,0 -0.23874,0.11368 -0.0848,0.11369 -0.0848,0.3204 0,0.20567 0.0848,0.31936 0.0858,0.11369 0.23874,0.11369 0.154,0 0.23875,-0.11369 0.0858,-0.11369 0.0858,-0.31936 z m 0.19017,0.44855 q 0,0.29559 -0.13126,0.43925 -0.13126,0.1447 -0.40204,0.1447 -0.10025,0 -0.18914,-0.0155 -0.0889,-0.0145 -0.1726,-0.0455 v -0.185 q 0.0837,0.0455 0.16537,0.0672 0.0816,0.0217 0.1664,0.0217 0.18706,0 0.28008,-0.0982 0.093,-0.0971 0.093,-0.29455 v -0.0941 q -0.0589,0.10232 -0.1509,0.15296 -0.092,0.0506 -0.22014,0.0506 -0.2129,0 -0.34313,-0.16226 -0.13022,-0.16227 -0.13022,-0.42995 0,-0.26872 0.13022,-0.43098 0.13023,-0.16227 0.34313,-0.16227 0.12816,0 0.22014,0.0506 0.092,0.0506 0.1509,0.15296 v -0.1757 h 0.19017 z"
         style="font-size:2.11667px;stroke-width:0.0343959"
         id="path9619" />
    </g>
    <g
       aria-label="Datum"
       id="text4761-8-3-4-5-1-9-2-5-2"
       style="font-style:normal;font-weight:normal;font-size:2.11667px;line-height:1.25;font-family:sans-serif;letter-spacing:0px;word-spacing:0px;fill:#000000;fill-opacity:1;stroke:none;stroke-width:0.0343959;stroke-linecap:butt;stroke-linejoin:miter"
       transform="translate(-91.480433,19.247828)">
      <path
         d="m 235.62324,139.71087 v 1.19993 h 0.25218 q 0.31936,0 0.46716,-0.14469 0.14882,-0.1447 0.14882,-0.45682 0,-0.31006 -0.14882,-0.45372 -0.1478,-0.1447 -0.46716,-0.1447 z m -0.20877,-0.17156 h 0.42891 q 0.44855,0 0.65836,0.18707 0.20981,0.18603 0.20981,0.58291 0,0.39894 -0.21084,0.58601 -0.21084,0.18707 -0.65733,0.18707 h -0.42891 z"
         style="font-size:2.11667px;stroke-width:0.0343959"
         id="path9622" />
      <path
         d="m 237.56214,140.50049 q -0.23048,0 -0.31936,0.0527 -0.0889,0.0527 -0.0889,0.17983 0,0.10129 0.0661,0.16123 0.0672,0.0589 0.1819,0.0589 0.15813,0 0.25322,-0.11163 0.0961,-0.11265 0.0961,-0.29869 v -0.0424 z m 0.37931,-0.0786 v 0.66043 h -0.19017 v -0.1757 q -0.0651,0.10542 -0.16227,0.15606 -0.0971,0.0496 -0.23771,0.0496 -0.17777,0 -0.28319,-0.0992 -0.10438,-0.10025 -0.10438,-0.26768 0,-0.19534 0.13022,-0.29456 0.13126,-0.0992 0.39068,-0.0992 h 0.26665 v -0.0186 q 0,-0.13126 -0.0868,-0.20257 -0.0858,-0.0724 -0.24185,-0.0724 -0.0992,0 -0.19327,0.0238 -0.0941,0.0238 -0.18086,0.0713 v -0.1757 q 0.10438,-0.0403 0.20257,-0.0599 0.0982,-0.0207 0.1912,-0.0207 0.25115,0 0.37517,0.13022 0.12403,0.13023 0.12403,0.39481 z"
         style="font-size:2.11667px;stroke-width:0.0343959"
         id="path9624" />
      <path
         d="m 238.52126,139.59615 v 0.32866 h 0.39171 v 0.1478 h -0.39171 v 0.62838 q 0,0.1416 0.0382,0.18191 0.0393,0.0403 0.15813,0.0403 h 0.19534 v 0.15917 h -0.19534 q -0.22014,0 -0.30386,-0.0816 -0.0837,-0.0827 -0.0837,-0.29973 v -0.62838 h -0.13952 v -0.1478 h 0.13952 v -0.32866 z"
         style="font-size:2.11667px;stroke-width:0.0343959"
         id="path9626" />
      <path
         d="m 239.14344,140.62555 v -0.70074 h 0.19017 v 0.6935 q 0,0.16433 0.0641,0.24702 0.0641,0.0816 0.19224,0.0816 0.15399,0 0.24288,-0.0982 0.0899,-0.0982 0.0899,-0.26769 v -0.65629 h 0.19017 v 1.15756 h -0.19017 v -0.17777 q -0.0692,0.10542 -0.16123,0.1571 -0.091,0.0506 -0.21187,0.0506 -0.19947,0 -0.30282,-0.12402 -0.10336,-0.12403 -0.10336,-0.36277 z m 0.47853,-0.72864 z"
         style="font-size:2.11667px;stroke-width:0.0343959"
         id="path9628" />
      <path
         d="m 241.40584,140.14702 q 0.0713,-0.12816 0.17053,-0.18913 0.0992,-0.061 0.23358,-0.061 0.18087,0 0.27905,0.12712 0.0982,0.12609 0.0982,0.35967 v 0.69867 h -0.1912 v -0.69247 q 0,-0.1664 -0.0589,-0.24701 -0.0589,-0.0806 -0.17983,-0.0806 -0.14779,0 -0.23358,0.0982 -0.0858,0.0982 -0.0858,0.26768 v 0.65423 h -0.1912 v -0.69247 q 0,-0.16743 -0.0589,-0.24701 -0.0589,-0.0806 -0.18191,-0.0806 -0.14572,0 -0.23151,0.0992 -0.0858,0.0982 -0.0858,0.26665 v 0.65423 h -0.1912 v -1.15756 h 0.1912 v 0.17984 q 0.0651,-0.10646 0.15606,-0.1571 0.0909,-0.0506 0.21601,-0.0506 0.12609,0 0.21394,0.0641 0.0889,0.0641 0.13126,0.18603 z"
         style="font-size:2.11667px;stroke-width:0.0343959"
         id="path9630" />
    </g>
    <g
       aria-label="Name"
       id="text4761-8-3-4-5-1-9-2-5-2-8"
       style="font-style:normal;font-weight:normal;font-size:2.11667px;line-height:1.25;font-family:sans-serif;letter-spacing:0px;word-spacing:0px;fill:#000000;fill-opacity:1;stroke:none;stroke-width:0.0343959;stroke-linecap:butt;stroke-linejoin:miter"
       transform="translate(-91.480433,19.247828)">
      <path
         d="m 253.73081,139.53931 h 0.28112 l 0.6842,1.29088 v -1.29088 h 0.20257 v 1.54306 h -0.28112 l -0.6842,-1.29088 v 1.29088 h -0.20257 z"
         style="font-size:2.11667px;stroke-width:0.0343959"
         id="path9633" />
      <path
         d="m 255.83198,140.50049 q -0.23048,0 -0.31936,0.0527 -0.0889,0.0527 -0.0889,0.17983 0,0.10129 0.0661,0.16123 0.0672,0.0589 0.1819,0.0589 0.15813,0 0.25322,-0.11163 0.0961,-0.11265 0.0961,-0.29869 v -0.0424 z m 0.3793,-0.0786 v 0.66043 h -0.19017 v -0.1757 q -0.0651,0.10542 -0.16226,0.15606 -0.0971,0.0496 -0.23771,0.0496 -0.17777,0 -0.28319,-0.0992 -0.10439,-0.10025 -0.10439,-0.26768 0,-0.19534 0.13023,-0.29456 0.13126,-0.0992 0.39067,-0.0992 h 0.26665 v -0.0186 q 0,-0.13126 -0.0868,-0.20257 -0.0858,-0.0724 -0.24185,-0.0724 -0.0992,0 -0.19327,0.0238 -0.094,0.0238 -0.18087,0.0713 v -0.1757 q 0.10439,-0.0403 0.20258,-0.0599 0.0982,-0.0207 0.1912,-0.0207 0.25115,0 0.37517,0.13022 0.12402,0.13023 0.12402,0.39481 z"
         style="font-size:2.11667px;stroke-width:0.0343959"
         id="path9635" />
      <path
         d="m 257.50423,140.14702 q 0.0713,-0.12816 0.17053,-0.18913 0.0992,-0.061 0.23358,-0.061 0.18087,0 0.27905,0.12712 0.0982,0.12609 0.0982,0.35967 v 0.69867 h -0.1912 v -0.69247 q 0,-0.1664 -0.0589,-0.24701 -0.0589,-0.0806 -0.17983,-0.0806 -0.14779,0 -0.23358,0.0982 -0.0858,0.0982 -0.0858,0.26768 v 0.65423 h -0.1912 v -0.69247 q 0,-0.16743 -0.0589,-0.24701 -0.0589,-0.0806 -0.1819,-0.0806 -0.14572,0 -0.23151,0.0992 -0.0858,0.0982 -0.0858,0.26665 v 0.65423 h -0.1912 v -1.15756 h 0.1912 v 0.17984 q 0.0651,-0.10646 0.15606,-0.1571 0.091,-0.0506 0.21601,-0.0506 0.12609,0 0.21394,0.0641 0.0889,0.0641 0.13126,0.18603 z"
         style="font-size:2.11667px;stroke-width:0.0343959"
         id="path9637" />
      <path
         d="m 259.65501,140.45605 v 0.093 h -0.87437 q 0.0124,0.19637 0.11782,0.29972 0.10646,0.10232 0.29559,0.10232 0.10956,0 0.21188,-0.0269 0.10335,-0.0269 0.20463,-0.0806 v 0.17984 q -0.10232,0.0434 -0.2098,0.0661 -0.10749,0.0227 -0.21808,0.0227 -0.27698,0 -0.43925,-0.16123 -0.16123,-0.16123 -0.16123,-0.43615 0,-0.28422 0.15296,-0.45062 0.154,-0.16743 0.41445,-0.16743 0.23358,0 0.36897,0.15089 0.13643,0.14987 0.13643,0.40825 z m -0.19017,-0.0558 q -0.002,-0.15607 -0.0879,-0.24908 -0.0847,-0.093 -0.22531,-0.093 -0.15917,0 -0.25529,0.0899 -0.0951,0.0899 -0.10955,0.25321 z"
         style="font-size:2.11667px;stroke-width:0.0343959"
         id="path9639" />
    </g>
    <g
       aria-label="Gepr."
       id="text4761-8-3-4-5-1-9-2-5-2-7"
       style="font-style:normal;font-weight:normal;font-size:2.11667px;line-height:1.25;font-family:sans-serif;letter-spacing:0px;word-spacing:0px;fill:#000000;fill-opacity:1;stroke:none;stroke-width:0.0343959;stroke-linecap:butt;stroke-linejoin:miter"
       transform="translate(-91.480433,19.247828)">
      <path
         d="m 273.23256,140.67102 v -0.41445 h -0.34106 v -0.17156 h 0.54777 v 0.66249 q -0.12093,0.0858 -0.26665,0.13022 -0.14573,0.0434 -0.3111,0.0434 -0.36173,0 -0.56637,-0.21084 -0.20361,-0.21187 -0.20361,-0.58911 0,-0.37827 0.20361,-0.58911 0.20464,-0.21188 0.56637,-0.21188 0.1509,0 0.28629,0.0372 0.13643,0.0372 0.25115,0.10955 v 0.22221 q -0.11576,-0.0982 -0.24598,-0.14779 -0.13023,-0.0496 -0.27389,-0.0496 -0.28318,0 -0.42581,0.15813 -0.1416,0.15813 -0.1416,0.47129 0,0.31213 0.1416,0.47026 0.14263,0.15813 0.42581,0.15813 0.11059,0 0.19741,-0.0186 0.0868,-0.0196 0.15606,-0.0599 z"
         style="font-size:2.11667px;stroke-width:0.0343959"
         id="path9642" />
      <path
         d="m 274.80249,140.26484 v 0.093 h -0.87436 q 0.0124,0.19637 0.11782,0.29972 0.10645,0.10232 0.29559,0.10232 0.10955,0 0.21187,-0.0269 0.10335,-0.0269 0.20464,-0.0806 v 0.17984 q -0.10232,0.0434 -0.20981,0.0661 -0.10748,0.0227 -0.21807,0.0227 -0.27699,0 -0.43925,-0.16123 -0.16123,-0.16123 -0.16123,-0.43615 0,-0.28422 0.15296,-0.45062 0.154,-0.16743 0.41445,-0.16743 0.23357,0 0.36897,0.1509 0.13642,0.14986 0.13642,0.40824 z m -0.19017,-0.0558 q -0.002,-0.15606 -0.0879,-0.24908 -0.0847,-0.093 -0.22531,-0.093 -0.15916,0 -0.25528,0.0899 -0.0951,0.0899 -0.10955,0.25321 z"
         style="font-size:2.11667px;stroke-width:0.0343959"
         id="path9644" />
      <path
         d="m 275.29859,140.71753 v 0.61391 h -0.19121 v -1.59783 h 0.19121 v 0.1757 q 0.0599,-0.10336 0.15089,-0.15297 0.092,-0.0506 0.21911,-0.0506 0.21084,0 0.3421,0.16743 0.13229,0.16743 0.13229,0.44029 0,0.27285 -0.13229,0.44028 -0.13126,0.16743 -0.3421,0.16743 -0.12712,0 -0.21911,-0.0496 -0.091,-0.0506 -0.15089,-0.15399 z m 0.64699,-0.40411 q 0,-0.20981 -0.0868,-0.32867 -0.0858,-0.11989 -0.23668,-0.11989 -0.15089,0 -0.23771,0.11989 -0.0858,0.11886 -0.0858,0.32867 0,0.2098 0.0858,0.32969 0.0868,0.11886 0.23771,0.11886 0.1509,0 0.23668,-0.11886 0.0868,-0.11989 0.0868,-0.32969 z"
         style="font-size:2.11667px;stroke-width:0.0343959"
         id="path9646" />
      <path
         d="m 277.12897,139.91137 q -0.032,-0.0186 -0.0703,-0.0269 -0.0372,-0.009 -0.0827,-0.009 -0.16123,0 -0.24805,0.10542 -0.0858,0.10439 -0.0858,0.30076 v 0.60978 h -0.19121 v -1.15755 h 0.19121 v 0.17983 q 0.0599,-0.10542 0.15606,-0.15606 0.0961,-0.0517 0.23358,-0.0517 0.0196,0 0.0434,0.003 0.0238,0.002 0.0527,0.007 z"
         style="font-size:2.11667px;stroke-width:0.0343959"
         id="path9648" />
      <path
         d="m 277.16101,140.62864 h 0.21807 v 0.26252 h -0.21807 z"
         style="font-size:2.11667px;stroke-width:0.0343959"
         id="path9650" />
    </g>
    <path
       style="fill:none;stroke:#000000;stroke-width:0.25;stroke-linecap:butt;stroke-linejoin:miter;stroke-miterlimit:4;stroke-dasharray:none;stroke-opacity:1"
       d="m 16.008347,157.20502 179.649993,0.39783"
       id="path3428" />
    <path
       style="fill:none;stroke:#000000;stroke-width:0.25;stroke-linecap:butt;stroke-linejoin:miter;stroke-miterlimit:4;stroke-dasharray:none;stroke-opacity:1"
       d="M 16.008347,152.59007 195.65834,152.9879"
       id="path3428-2" />
    <path
       style="fill:none;stroke:#000000;stroke-width:0.25;stroke-linecap:butt;stroke-linejoin:miter;stroke-miterlimit:4;stroke-dasharray:none;stroke-opacity:1"
       d="m 16.008347,148.09745 179.649993,0.39783"
       id="path3428-9" />
    <path
       style="fill:none;stroke:#000000;stroke-width:0.25;stroke-linecap:butt;stroke-linejoin:miter;stroke-miterlimit:4;stroke-dasharray:none;stroke-opacity:1"
       d="m 16.008347,143.41909 179.649993,0.39783"
       id="path3428-3" />
    <path
       style="fill:none;stroke:#000000;stroke-width:0.25;stroke-linecap:butt;stroke-linejoin:miter;stroke-miterlimit:4;stroke-dasharray:none;stroke-opacity:1"
       d="m 16.008347,138.74634 179.649993,0.39783"
       id="path3428-1" />
    <path
       style="fill:none;stroke:#000000;stroke-width:0.25;stroke-linecap:butt;stroke-linejoin:miter;stroke-miterlimit:4;stroke-dasharray:none;stroke-opacity:1"
       d="M 27.192897,162.08918 V 134.24415"
       id="path3493" />
    <path
       style="fill:none;stroke:#000000;stroke-width:0.25;stroke-linecap:butt;stroke-linejoin:miter;stroke-miterlimit:4;stroke-dasharray:none;stroke-opacity:1"
       d="M 142.38976,162.08918 V 134.24415"
       id="path3493-9" />
    <path
       style="fill:none;stroke:#000000;stroke-width:0.25;stroke-linecap:butt;stroke-linejoin:miter;stroke-miterlimit:4;stroke-dasharray:none;stroke-opacity:1"
       d="M 161.04942,162.08918 V 134.24415"
       id="path3493-4" />
    <path
       style="fill:none;stroke:#000000;stroke-width:0.25;stroke-linecap:butt;stroke-linejoin:miter;stroke-miterlimit:4;stroke-dasharray:none;stroke-opacity:1"
       d="M 179.57841,162.08918 V 134.24415"
       id="path3493-7" />
    <text
       style="font-style:normal;font-variant:normal;font-weight:normal;font-stretch:normal;font-size:2.82222px;line-height:0%;font-family:Arial;-inkscape-font-specification:Arial;text-align:start;letter-spacing:0px;word-spacing:0px;text-anchor:start;fill:#000000;fill-opacity:1;stroke:none"
       x="16.907965"
       y="156.64067"
       id="text3290-89-0-5-6-8"
       freecad:editable="aenderung_zustand_0"><tspan
         style="font-size:2.82222px;line-height:1.25"
         id="tspan3292-3-2-8-29-4"
         x="16.907965"
         y="156.64067">...</tspan></text>
    <text
       style="font-style:normal;font-variant:normal;font-weight:normal;font-stretch:normal;font-size:2.82222px;line-height:0%;font-family:Arial;-inkscape-font-specification:Arial;text-align:start;letter-spacing:0px;word-spacing:0px;text-anchor:start;fill:#000000;fill-opacity:1;stroke:none"
       x="16.907965"
       y="151.85938"
       id="text3290-89-0-5-6-5"
       freecad:editable="aenderung_zustand_1"><tspan
         style="font-size:2.82222px;line-height:1.25"
         id="tspan3292-3-2-8-29-0"
         x="16.907965"
         y="151.85938">...</tspan></text>
    <text
       style="font-style:normal;font-variant:normal;font-weight:normal;font-stretch:normal;font-size:2.82222px;line-height:0%;font-family:Arial;-inkscape-font-specification:Arial;text-align:start;letter-spacing:0px;word-spacing:0px;text-anchor:start;fill:#000000;fill-opacity:1;stroke:none"
       x="16.907965"
       y="147.62558"
       id="text3290-89-0-5-6-3"
       freecad:editable="aenderung_zustand_2"><tspan
         style="font-size:2.82222px;line-height:1.25"
         id="tspan3292-3-2-8-29-6"
         x="16.907965"
         y="147.62558">...</tspan></text>
    <text
       style="font-style:normal;font-variant:normal;font-weight:normal;font-stretch:normal;font-size:2.82222px;line-height:0%;font-family:Arial;-inkscape-font-specification:Arial;text-align:start;letter-spacing:0px;word-spacing:0px;text-anchor:start;fill:#000000;fill-opacity:1;stroke:none"
       x="16.907965"
       y="142.7014"
       id="text3290-89-0-5-6-1"
       freecad:editable="aenderung_zustand_3"><tspan
         style="font-size:2.82222px;line-height:1.25"
         id="tspan3292-3-2-8-29-06"
         x="16.907965"
         y="142.7014">...</tspan></text>
    <text
       style="font-style:normal;font-variant:normal;font-weight:normal;font-stretch:normal;font-size:2.82222px;line-height:0%;font-family:Arial;-inkscape-font-specification:Arial;text-align:start;letter-spacing:0px;word-spacing:0px;text-anchor:start;fill:#000000;fill-opacity:1;stroke:none"
       x="16.907965"
       y="138.20865"
       id="text3290-89-0-5-6-32"
       freecad:editable="aenderung_zustand_4"><tspan
         style="font-size:2.82222px;line-height:1.25"
         id="tspan3292-3-2-8-29-061"
         x="16.907965"
         y="138.20865">...</tspan></text>
    <text
       style="font-style:normal;font-variant:normal;font-weight:normal;font-stretch:normal;font-size:2.82222px;line-height:0%;font-family:Arial;-inkscape-font-specification:Arial;text-align:start;letter-spacing:0px;word-spacing:0px;text-anchor:start;fill:#000000;fill-opacity:1;stroke:none"
       x="143.67633"
       y="156.64067"
       id="text3290-89-0-5-6-8-5"
       freecad:editable="Drawing_number"><tspan
         style="font-size:2.82222px;line-height:1.25"
         id="tspan3292-3-2-8-29-4-5"
         x="143.67633"
         y="156.64067">...</tspan></text>
    <text
       style="font-style:normal;font-variant:normal;font-weight:normal;font-stretch:normal;font-size:2.82222px;line-height:0%;font-family:Arial;-inkscape-font-specification:Arial;text-align:start;letter-spacing:0px;word-spacing:0px;text-anchor:start;fill:#000000;fill-opacity:1;stroke:none"
       x="161.99268"
       y="156.64067"
       id="text3290-89-0-5-6-8-4"
       freecad:editable="aenderung_name_0"><tspan
         style="font-size:2.82222px;line-height:1.25"
         id="tspan3292-3-2-8-29-4-7"
         x="161.99268"
         y="156.64067">...</tspan></text>
    <text
       style="font-style:normal;font-variant:normal;font-weight:normal;font-stretch:normal;font-size:2.82222px;line-height:0%;font-family:Arial;-inkscape-font-specification:Arial;text-align:start;letter-spacing:0px;word-spacing:0px;text-anchor:start;fill:#000000;fill-opacity:1;stroke:none"
       x="180.35342"
       y="156.64067"
       id="text3290-89-0-5-6-8-6"
       freecad:editable="aenderung_gepr_0"><tspan
         style="font-size:2.82222px;line-height:1.25"
         id="tspan3292-3-2-8-29-4-56"
         x="180.35342"
         y="156.64067">...</tspan></text>
    <text
       style="font-style:normal;font-variant:normal;font-weight:normal;font-stretch:normal;font-size:2.82222px;line-height:0%;font-family:Arial;-inkscape-font-specification:Arial;text-align:start;letter-spacing:0px;word-spacing:0px;text-anchor:start;fill:#000000;fill-opacity:1;stroke:none"
       x="143.67633"
       y="151.85938"
       id="text3290-89-0-5-6-8-9"
       freecad:editable="aenderung_datum_1"><tspan
         style="font-size:2.82222px;line-height:1.25"
         id="tspan3292-3-2-8-29-4-3"
         x="143.67633"
         y="151.85938">...</tspan></text>
    <text
       style="font-style:normal;font-variant:normal;font-weight:normal;font-stretch:normal;font-size:2.82222px;line-height:0%;font-family:Arial;-inkscape-font-specification:Arial;text-align:start;letter-spacing:0px;word-spacing:0px;text-anchor:start;fill:#000000;fill-opacity:1;stroke:none"
       x="161.99268"
       y="151.85938"
       id="text3290-89-0-5-6-8-7"
       freecad:editable="aenderung_name_1"><tspan
         style="font-size:2.82222px;line-height:1.25"
         id="tspan3292-3-2-8-29-4-4"
         x="161.99268"
         y="151.85938">...</tspan></text>
    <text
       style="font-style:normal;font-variant:normal;font-weight:normal;font-stretch:normal;font-size:2.82222px;line-height:0%;font-family:Arial;-inkscape-font-specification:Arial;text-align:start;letter-spacing:0px;word-spacing:0px;text-anchor:start;fill:#000000;fill-opacity:1;stroke:none"
       x="180.35342"
       y="151.85938"
       id="text3290-89-0-5-6-8-52"
       freecad:editable="aenderung_gepr_1"><tspan
         style="font-size:2.82222px;line-height:1.25"
         id="tspan3292-3-2-8-29-4-54"
         x="180.35342"
         y="151.85938">...</tspan></text>
    <text
       style="font-style:normal;font-variant:normal;font-weight:normal;font-stretch:normal;font-size:2.82222px;line-height:0%;font-family:Arial;-inkscape-font-specification:Arial;text-align:start;letter-spacing:0px;word-spacing:0px;text-anchor:start;fill:#000000;fill-opacity:1;stroke:none"
       x="180.35342"
       y="147.62558"
       id="text3290-89-0-5-6-8-74"
       freecad:editable="aenderung_gepr_2"><tspan
         style="font-size:2.82222px;line-height:1.25"
         id="tspan3292-3-2-8-29-4-43"
         x="180.35342"
         y="147.62558">...</tspan></text>
    <text
       style="font-style:normal;font-variant:normal;font-weight:normal;font-stretch:normal;font-size:2.82222px;line-height:0%;font-family:Arial;-inkscape-font-specification:Arial;text-align:start;letter-spacing:0px;word-spacing:0px;text-anchor:start;fill:#000000;fill-opacity:1;stroke:none"
       x="161.99268"
       y="147.62558"
       id="text3290-89-0-5-6-8-0"
       freecad:editable="aenderung_name_2"><tspan
         style="font-size:2.82222px;line-height:1.25"
         id="tspan3292-3-2-8-29-4-78"
         x="161.99268"
         y="147.62558">...</tspan></text>
    <text
       style="font-style:normal;font-variant:normal;font-weight:normal;font-stretch:normal;font-size:2.82222px;line-height:0%;font-family:Arial;-inkscape-font-specification:Arial;text-align:start;letter-spacing:0px;word-spacing:0px;text-anchor:start;fill:#000000;fill-opacity:1;stroke:none"
       x="143.67633"
       y="147.62558"
       id="text3290-89-0-5-6-8-68"
       freecad:editable="aenderung_datum_2"><tspan
         style="font-size:2.82222px;line-height:1.25"
         id="tspan3292-3-2-8-29-4-8"
         x="143.67633"
         y="147.62558">...</tspan></text>
    <text
       style="font-style:normal;font-variant:normal;font-weight:normal;font-stretch:normal;font-size:2.82222px;line-height:0%;font-family:Arial;-inkscape-font-specification:Arial;text-align:start;letter-spacing:0px;word-spacing:0px;text-anchor:start;fill:#000000;fill-opacity:1;stroke:none"
       x="143.67633"
       y="142.7014"
       id="text3290-89-0-5-6-8-43"
       freecad:editable="aenderung_datum_3"><tspan
         style="font-size:2.82222px;line-height:1.25"
         id="tspan3292-3-2-8-29-4-1"
         x="143.67633"
         y="142.7014">...</tspan></text>
    <text
       style="font-style:normal;font-variant:normal;font-weight:normal;font-stretch:normal;font-size:2.82222px;line-height:0%;font-family:Arial;-inkscape-font-specification:Arial;text-align:start;letter-spacing:0px;word-spacing:0px;text-anchor:start;fill:#000000;fill-opacity:1;stroke:none"
       x="143.67633"
       y="138.20865"
       id="text3290-89-0-5-6-8-49"
       freecad:editable="aenderung_datum_4"><tspan
         style="font-size:2.82222px;line-height:1.25"
         id="tspan3292-3-2-8-29-4-2"
         x="143.67633"
         y="138.20865">...</tspan></text>
    <text
       style="font-style:normal;font-variant:normal;font-weight:normal;font-stretch:normal;font-size:2.82222px;line-height:0%;font-family:Arial;-inkscape-font-specification:Arial;text-align:start;letter-spacing:0px;word-spacing:0px;text-anchor:start;fill:#000000;fill-opacity:1;stroke:none"
       x="161.99268"
       y="138.20865"
       id="text3290-89-0-5-6-8-06"
       freecad:editable="aenderung_name_4"><tspan
         style="font-size:2.82222px;line-height:1.25"
         id="tspan3292-3-2-8-29-4-89"
         x="161.99268"
         y="138.20865">...</tspan></text>
    <text
       style="font-style:normal;font-variant:normal;font-weight:normal;font-stretch:normal;font-size:2.82222px;line-height:0%;font-family:Arial;-inkscape-font-specification:Arial;text-align:start;letter-spacing:0px;word-spacing:0px;text-anchor:start;fill:#000000;fill-opacity:1;stroke:none"
       x="180.35342"
       y="138.20865"
       id="text3290-89-0-5-6-8-2"
       freecad:editable="aenderung_gepr_4"><tspan
         style="font-size:2.82222px;line-height:1.25"
         id="tspan3292-3-2-8-29-4-6"
         x="180.35342"
         y="138.20865">...</tspan></text>
    <text
       style="font-style:normal;font-variant:normal;font-weight:normal;font-stretch:normal;font-size:2.82222px;line-height:0%;font-family:Arial;-inkscape-font-specification:Arial;text-align:start;letter-spacing:0px;word-spacing:0px;text-anchor:start;fill:#000000;fill-opacity:1;stroke:none"
       x="161.99268"
       y="142.7014"
       id="text3290-89-0-5-6-8-64"
       freecad:editable="aenderung_name_3"><tspan
         style="font-size:2.82222px;line-height:1.25"
         id="tspan3292-3-2-8-29-4-9"
         x="161.99268"
         y="142.7014">...</tspan></text>
    <text
       style="font-style:normal;font-variant:normal;font-weight:normal;font-stretch:normal;font-size:2.82222px;line-height:0%;font-family:Arial;-inkscape-font-specification:Arial;text-align:start;letter-spacing:0px;word-spacing:0px;text-anchor:start;fill:#000000;fill-opacity:1;stroke:none"
       x="180.35342"
       y="142.7014"
       id="text3290-89-0-5-6-8-50"
       freecad:editable="aenderung_gepr_3"><tspan
         style="font-size:2.82222px;line-height:1.25"
         id="tspan3292-3-2-8-29-4-48"
         x="180.35342"
         y="142.7014">...</tspan></text>
    <text
       style="font-style:normal;font-variant:normal;font-weight:normal;font-stretch:normal;font-size:2.82222px;line-height:0%;font-family:Arial;-inkscape-font-specification:Arial;text-align:start;letter-spacing:0px;word-spacing:0px;text-anchor:start;fill:#000000;fill-opacity:1;stroke:none"
       x="28.330061"
       y="156.64067"
       id="text3290-89-0-5-6-8-71"
       freecad:editable="aenderung_0"><tspan
         style="font-size:2.82222px;line-height:1.25"
         id="tspan3292-3-2-8-29-4-72"
         x="28.330061"
         y="156.64067">...</tspan></text>
    <text
       style="font-style:normal;font-variant:normal;font-weight:normal;font-stretch:normal;font-size:2.82222px;line-height:0%;font-family:Arial;-inkscape-font-specification:Arial;text-align:start;letter-spacing:0px;word-spacing:0px;text-anchor:start;fill:#000000;fill-opacity:1;stroke:none"
       x="28.330061"
       y="151.85938"
       id="text3290-89-0-5-6-8-72"
       freecad:editable="aenderung_1"><tspan
         style="font-size:2.82222px;line-height:1.25"
         id="tspan3292-3-2-8-29-4-26"
         x="28.330061"
         y="151.85938">...</tspan></text>
    <text
       style="font-style:normal;font-variant:normal;font-weight:normal;font-stretch:normal;font-size:2.82222px;line-height:0%;font-family:Arial;-inkscape-font-specification:Arial;text-align:start;letter-spacing:0px;word-spacing:0px;text-anchor:start;fill:#000000;fill-opacity:1;stroke:none"
       x="28.330061"
       y="147.62558"
       id="text3290-89-0-5-6-8-1"
       freecad:editable="aenderung_2"><tspan
         style="font-size:2.82222px;line-height:1.25"
         id="tspan3292-3-2-8-29-4-0"
         x="28.330061"
         y="147.62558">...</tspan></text>
    <text
       style="font-style:normal;font-variant:normal;font-weight:normal;font-stretch:normal;font-size:2.82222px;line-height:0%;font-family:Arial;-inkscape-font-specification:Arial;text-align:start;letter-spacing:0px;word-spacing:0px;text-anchor:start;fill:#000000;fill-opacity:1;stroke:none"
       x="28.330061"
       y="142.7014"
       id="text3290-89-0-5-6-8-61"
       freecad:editable="aenderung_3"><tspan
         style="font-size:2.82222px;line-height:1.25"
         id="tspan3292-3-2-8-29-4-59"
         x="28.330061"
         y="142.7014">...</tspan></text>
    <text
       style="font-style:normal;font-variant:normal;font-weight:normal;font-stretch:normal;font-size:2.82222px;line-height:0%;font-family:Arial;-inkscape-font-specification:Arial;text-align:start;letter-spacing:0px;word-spacing:0px;text-anchor:start;fill:#000000;fill-opacity:1;stroke:none"
       x="28.330061"
       y="138.20865"
       id="text3290-89-0-5-6-8-490"
       freecad:editable="aenderung_4"><tspan
         style="font-size:2.82222px;line-height:1.25"
         id="tspan3292-3-2-8-29-4-91"
         x="28.330061"
         y="138.20865">...</tspan></text>
  </g>
</svg>
